<svg version="1.2" xmlns="http://www.w3.org/2000/svg" viewBox="0 0 128 128" width="128" height="128">
	<title>project_favorite</title>
	<style>
		.s0 { fill: #f77e00 } 
		.s1 { fill: #ff9800 } 
		.s2 { fill: #ffbd52 } 
	</style>
	<path class="s0" d="m69.3 7.9l51.2 50.9c3 3 2.9 7.8-0.1 10.7q0 0.1-0.1 0.1l-51 51.5c-3 3-8 3-11 0l-51-51.2c-3-3-3.1-7.7-0.3-10.8l51.3-51c2.8-3.1 7.6-3.4 10.7-0.5 0.1 0.1 0.2 0.2 0.3 0.3z"/>
	<path class="s1" d="m61 15.1l44.6 44.5c2.5 2.7 2.4 6.8-0.2 9.4q0 0-0.1 0l-44.3 44.9c-2.5 2.7-6.8 2.8-9.4 0.2-0.1-0.1-0.2-0.1-0.3-0.2l-44.5-44.6c-2.7-2.5-2.9-6.6-0.4-9.3 0.1-0.1 0.1-0.1 0.1-0.1l44.8-44.6c2.7-2.7 7-2.8 9.7-0.2z"/>
	<path class="s2" d="m53 18.9c-1.4 1.2-32.4 31.9-32.4 31.9-1.4 1.1-1.7 3.1-0.8 4.7 1.6 2.2 4.1 1.1 5.5 0 1.4-1.1 29.1-28.5 30.2-29.9 1.1-1.5 1.3-3.6 0.5-5.3-0.1-1-1-1.8-2.1-1.7-0.3 0-0.6 0.2-0.9 0.3z"/>
	<path fill-rule="evenodd" class="s2" d="m16.5 64.3c-1.9 0-3.4-1.4-3.4-3.3 0-1.8 1.5-3.3 3.4-3.3 1.8 0 3.3 1.5 3.3 3.3 0 1.9-1.5 3.3-3.3 3.3z"/>
</svg>